HIERARCHY
ROOT Hips
{
	OFFSET -3.958830 18.904000 13.208200
	CHANNELS 6 Xposition Yposition Zposition Zrotation Yrotation Xrotation 
	JOINT LHipJoint
	{
		OFFSET 0.000000 0.000000 0.000000
		CHANNELS 3 Zrotation Yrotation Xrotation
		JOINT LeftUpLeg
		{
			OFFSET 1.800000 -1.400000 0.085000
			CHANNELS 3 Zrotation Yrotation Xrotation
			JOINT LeftLeg
			{
				OFFSET 2.215000 -6.000000 0.000000
				CHANNELS 3 Zrotation Yrotation Xrotation
				JOINT LeftFoot
				{
					OFFSET 2.500000 -6.900000 0.000000
					CHANNELS 3 Zrotation Yrotation Xrotation
					JOINT LeftToeBase
					{
						OFFSET 0.200000 -0.500000 1.950000
						CHANNELS 3 Zrotation Yrotation Xrotation
						End Site
						{
							OFFSET 0.000000 0.000000 0.000000
						}
					}
				}
			}
		}
	}
	JOINT RHipJoint
	{
		OFFSET 0.000000 0.000000 0.000000
		CHANNELS 3 Zrotation Yrotation Xrotation
		JOINT RightUpLeg
		{
			OFFSET -1.800000 -1.400000 0.085000
			CHANNELS 3 Zrotation Yrotation Xrotation
			JOINT RightLeg
			{
				OFFSET -2.215000 -6.000000 0.000000
				CHANNELS 3 Zrotation Yrotation Xrotation
				JOINT RightFoot
				{
					OFFSET -2.500000 -6.900000 0.000000
					CHANNELS 3 Zrotation Yrotation Xrotation
					JOINT RightToeBase
					{
						OFFSET -0.200000 -0.500000 1.950000
						CHANNELS 3 Zrotation Yrotation Xrotation
						End Site
						{
							OFFSET 0.000000 0.000000 0.000000
						}
					}
				}
			}
		}
	}
	JOINT LowerBack
	{
		OFFSET 0.000000 0.000000 0.000000
		CHANNELS 3 Zrotation Yrotation Xrotation
		JOINT Spine
		{
			OFFSET -0.087000 1.940000 -0.288900
			CHANNELS 3 Zrotation Yrotation Xrotation
			JOINT Spine1
			{
				OFFSET 0.000000 1.950000 0.060000
				CHANNELS 3 Zrotation Yrotation Xrotation
				JOINT Neck
				{
					OFFSET 0.000000 0.000000 0.000000
					CHANNELS 3 Zrotation Yrotation Xrotation
					JOINT Neck1
					{
						OFFSET 0.000000 1.600000 0.340000
						CHANNELS 3 Zrotation Yrotation Xrotation
						JOINT Head
						{
							OFFSET 0.000000 1.667000 -0.240000
							CHANNELS 3 Zrotation Yrotation Xrotation
							End Site
							{
								OFFSET 0.000000 0.000000 0.000000
							}
						}
					}
				}
				JOINT LeftShoulder
				{
					OFFSET 0.000000 0.000000 0.000000
					CHANNELS 3 Zrotation Yrotation Xrotation
					JOINT LeftArm
					{
						OFFSET 2.700000 1.550000 -0.730000
						CHANNELS 3 Zrotation Yrotation Xrotation
						JOINT LeftForeArm
						{
							OFFSET 5.450000 0.000000 0.000000
							CHANNELS 3 Zrotation Yrotation Xrotation
							JOINT LeftHand
							{
								OFFSET 3.450000 0.000000 0.000000
								CHANNELS 3 Zrotation Yrotation Xrotation
								JOINT LeftHandIndex1
								{
									OFFSET 0.750000 0.000000 0.000000
									CHANNELS 3 Zrotation Yrotation Xrotation
									End Site
									{
										OFFSET 0.000000 0.000000 0.000000
									}
								}
							}
						}
					}
				}
				JOINT RightShoulder
				{
					OFFSET 0.000000 0.000000 0.000000
					CHANNELS 3 Zrotation Yrotation Xrotation
					JOINT RightArm
					{
						OFFSET -2.700000 1.550000 -0.730000
						CHANNELS 3 Zrotation Yrotation Xrotation
						JOINT RightForeArm
						{
							OFFSET -5.450000 0.000000 0.000000
							CHANNELS 3 Zrotation Yrotation Xrotation
							JOINT RightHand
							{
								OFFSET -3.450000 0.000000 0.000000
								CHANNELS 3 Zrotation Yrotation Xrotation
								JOINT RightHandIndex1
								{
									OFFSET -0.750000 0.000000 0.000000
									CHANNELS 3 Zrotation Yrotation Xrotation
									End Site
									{
										OFFSET 0.000000 0.000000 0.000000
									}
								}
							}
						}
					}
				}
			}
		}
	}
}
MOTION
Frames: 8
Frame Time: 0.016667
0.170180 17.102080 -0.481740 -6.359489 -0.716789 3.934733 -15.536648 12.970140 3.450226 4.899880 0.599120 -0.942367 -9.529305 4.007043 -4.379524 0.130062 4.426777 3.280508 0.127340 -0.095700 0.091520 17.768470 -10.442308 2.998121 -25.128425 0.233712 -10.376572 5.760669 -4.116645 0.845689 -0.309164 -4.025840 3.010790 -0.060740 0.220350 0.154830 -2.340963 -1.776406 -8.270386 0.149699 1.903838 2.089957 7.319619 1.159055 -3.282501 2.343815 -0.165494 -14.782258 -3.657713 2.276087 49.498669 -0.845190 1.150660 1.842350 -12.631493 -11.972140 5.848013 2.888562 4.405110 0.116400 10.727386 -11.941488 -0.405945 -3.913995 2.729900 0.351710 0.134760 -0.021450 0.114420 9.909019 13.709153 9.881064 -4.044028 0.475463 -0.868064 -4.971278 -6.532030 0.251581 2.790549 -1.062282 -0.131730 0.141660 0.038550 -0.127720 
0.166620 17.103350 -0.481560 -6.272756 -0.653288 3.917606 -15.539074 12.958396 3.447737 4.801550 0.615998 -0.871166 -9.437523 3.985928 -4.432051 0.125539 4.423239 3.279773 0.126130 -0.091690 0.086020 17.766771 -10.436350 3.017048 -25.210606 0.236770 -10.282694 5.883078 -4.122354 0.707246 -0.311423 -4.054377 2.997767 -0.052980 0.222900 0.153930 -2.335225 -1.753782 -8.278898 -0.041072 1.876082 2.146022 7.366708 1.140641 -3.447646 2.364942 -0.162397 -14.769349 -3.549243 2.323908 49.467214 -0.878620 1.234700 1.829500 -12.174626 -11.697336 5.784572 2.322683 4.159157 0.104270 11.066416 -12.171363 -0.430272 -3.920408 2.728956 0.346580 0.138300 -0.023940 0.115190 9.403100 13.494705 9.863507 -3.341001 0.792583 -0.815598 -5.078940 -6.698334 0.272962 2.794733 -1.068090 -0.134710 0.143250 0.040810 -0.126250 
0.160680 17.106790 -0.479790 -6.212355 -0.646548 3.973915 -15.535386 12.949320 3.447404 4.746026 0.618936 -0.878651 -9.377361 3.964893 -4.494345 0.121049 4.411477 3.283291 0.126280 -0.088840 0.082070 17.769834 -10.427548 3.039423 -25.228345 0.253097 -10.259561 6.015693 -4.117175 0.532170 -0.316567 -4.063646 2.997511 -0.051700 0.224140 0.148940 -2.344400 -1.742882 -8.294770 -0.068936 1.775094 2.063763 7.260285 1.083437 -3.734443 2.330704 -0.234263 -14.759254 -3.693463 2.481109 49.841622 -0.684670 1.252920 1.806540 -12.142052 -11.578522 5.771467 2.310219 4.489959 0.111481 11.128950 -12.471014 -0.426633 -3.912629 2.725833 0.351820 0.135430 -0.022820 0.117070 9.436806 13.427811 9.786313 -3.292063 1.022138 -0.812345 -4.969583 -6.876762 0.281255 2.796013 -1.061650 -0.137760 0.149550 0.041930 -0.125790 
0.152990 17.112110 -0.478260 -6.325739 -0.752362 4.056645 -15.527773 12.951478 3.451656 4.869212 0.590735 -0.942882 -9.346720 3.945625 -4.574833 0.118694 4.402729 3.285694 0.134830 -0.085030 0.093690 17.775934 -10.423248 3.043244 -25.008931 0.287171 -10.274292 5.811358 -4.044305 0.313108 -0.326594 -4.025639 3.014589 -0.055190 0.213230 0.146680 -2.362825 -1.754255 -8.304269 0.197176 1.697038 1.860325 7.015318 1.066172 -3.985964 2.299149 -0.248218 -14.692504 -3.860361 2.564565 50.496920 -0.487140 1.225020 1.632900 -12.781142 -11.718079 5.746798 3.239328 5.227906 0.149575 10.819286 -12.827347 -0.390186 -3.886918 2.728649 0.370490 0.122310 -0.010620 0.117710 10.138006 13.506210 9.665131 -4.042204 0.924102 -0.862586 -4.610407 -6.908526 0.260255 2.792724 -1.049293 -0.137170 0.152090 0.035800 -0.130820 
0.143930 17.116790 -0.478070 -6.455122 -0.977658 4.068909 -15.515461 12.959353 3.464061 5.071772 0.586269 -0.963210 -9.476863 3.961515 -4.616181 0.123741 4.409431 3.278900 0.140170 -0.078450 0.097860 17.782988 -10.426575 3.046031 -24.831741 0.314324 -10.345342 5.677749 -3.992234 0.228264 -0.330363 -3.987379 3.028799 -0.054890 0.202750 0.141700 -2.387697 -1.761440 -8.326929 0.533656 1.637786 1.808646 6.767697 1.090105 -4.280658 2.257845 -0.366767 -14.708107 -4.182611 2.790136 51.108880 -0.192360 1.237800 1.542150 -12.995388 -11.701605 5.734707 3.598907 5.818817 0.171975 10.676150 -13.283512 -0.363000 -3.864480 2.734412 0.380830 0.109920 -0.000800 0.118260 10.427741 13.565507 9.613694 -4.199561 1.035899 -0.883183 -4.513534 -7.010897 0.272193 2.797659 -1.040387 -0.135690 0.153400 0.031420 -0.132070 
0.132480 17.120210 -0.478930 -6.554649 -1.214219 4.042514 -15.512914 12.955204 3.474433 5.324907 0.595563 -0.907707 -9.654750 3.978100 -4.729743 0.126693 4.443359 3.263544 0.136550 -0.083550 0.097150 17.784784 -10.420166 3.046632 -24.735894 0.337297 -10.413053 5.685903 -3.976333 0.185387 -0.328802 -3.971247 3.032377 -0.056930 0.200760 0.142620 -2.390521 -1.762052 -8.337262 0.636023 1.632636 1.756760 6.734104 1.117842 -4.443392 2.235721 -0.438277 -14.689247 -4.347320 2.960969 51.466395 -0.150510 1.352810 1.554590 -13.094660 -11.647417 5.714785 3.861637 6.234698 0.209976 10.409985 -13.544295 -0.337862 -3.860263 2.736794 0.386490 0.108040 0.001760 0.114130 10.581036 13.571416 9.550085 -4.245110 1.236978 -0.903197 -4.468961 -7.174044 0.285365 2.800295 -1.033876 -0.137920 0.153200 0.036320 -0.134650 
0.117800 17.122630 -0.480740 -6.604353 -1.319381 4.027005 -15.523104 12.935382 3.476909 5.591394 0.597000 -0.863459 -9.862532 3.991639 -4.854618 0.123805 4.485307 3.249428 0.132280 -0.092230 0.097980 17.778602 -10.404572 3.049059 -24.692969 0.356358 -10.380023 5.723759 -3.966746 0.051809 -0.327873 -3.980147 3.030720 -0.057630 0.202340 0.142540 -2.364457 -1.748114 -8.331551 0.379512 1.639705 1.651284 6.995475 1.086816 -4.437400 2.238672 -0.389904 -14.669504 -4.197202 2.973441 51.540460 -0.379680 1.546690 1.638100 -12.988040 -11.585889 5.736960 3.870981 6.487007 0.235513 10.197534 -13.615836 -0.324226 -3.865042 2.733332 0.390980 0.112440 -0.002420 0.110040 10.496893 13.480097 9.492633 -4.044033 1.454952 -0.908152 -4.498827 -7.283198 0.295843 2.797939 -1.032952 -0.145370 0.153620 0.041460 -0.141270 
0.107520 17.124520 -0.481640 -6.739262 -1.365974 4.040061 -15.522172 12.928580 3.480422 5.896844 0.575520 -0.885299 -10.020696 4.005434 -4.936484 0.127151 4.522449 3.239662 0.127690 -0.105450 0.095210 17.780935 -10.386154 3.052567 -24.596639 0.382150 -10.333160 5.767833 -3.951336 -0.086309 -0.328359 -3.986044 3.029816 -0.064420 0.206960 0.148530 -2.368936 -1.766881 -8.334093 0.556357 1.600853 1.503484 6.972105 1.052095 -4.434126 2.237982 -0.463069 -14.662729 -4.407730 3.036576 51.642875 -0.539120 1.579120 1.980940 -13.200701 -11.644360 5.734332 4.316056 6.724757 0.288132 9.626679 -13.337711 -0.287251 -3.870494 2.740102 0.392920 0.116870 -0.007290 0.109880 10.720754 13.551826 9.498470 -4.367555 1.252046 -0.914164 -4.243859 -7.124436 0.262218 2.790291 -1.034938 -0.147160 0.148380 0.046250 -0.143670 
